<svg xmlns="http://www.w3.org/2000/svg" width="1024" height="1024" viewBox="0 0 1024 1024">
  <defs>
    <linearGradient id="bgGrad" x1="0" y1="0" x2="1" y2="1">
      <stop offset="0" stop-color="#4F46E5"/>
      <stop offset="1" stop-color="#7C3AED"/>
    </linearGradient>
    <radialGradient id="topLight" cx="0.5" cy="0.08" r="0.9">
      <stop offset="0" stop-color="#FFFFFF" stop-opacity="0.16"/>
      <stop offset="0.55" stop-color="#FFFFFF" stop-opacity="0.05"/>
      <stop offset="1" stop-color="#FFFFFF" stop-opacity="0"/>
    </radialGradient>
    <filter id="winShadow" x="-30%" y="-30%" width="160%" height="160%">
      <feGaussianBlur stdDeviation="18"/>
    </filter>
  </defs>

  <!-- Squircle background -->
  <rect x="0" y="0" width="1024" height="1024" rx="230" fill="url(#bgGrad)"/>
  <rect x="0" y="0" width="1024" height="1024" rx="230" fill="url(#topLight)"/>

  <!-- Terminal window shadow, then body -->
  <rect x="176" y="232" width="672" height="560" rx="28" fill="#1E1B4B"
        opacity="0.34" filter="url(#winShadow)" transform="translate(6 18)"/>
  <rect x="176" y="216" width="672" height="560" rx="28" fill="#0F172A"/>
  <rect x="176" y="216" width="672" height="560" rx="28" fill="none"
        stroke="#334155" stroke-width="6"/>

  <!-- Title bar + traffic-light dots -->
  <path d="M 176 244 Q 176 216 204 216 L 820 216 Q 848 216 848 244 L 848 300 L 176 300 Z"
        fill="#1E293B"/>
  <circle cx="232" cy="258" r="15" fill="#475569"/>
  <circle cx="286" cy="258" r="15" fill="#475569"/>
  <circle cx="340" cy="258" r="15" fill="#475569"/>

  <!-- Unrecognized text rows (dim) -->
  <g fill="#475569">
    <rect x="232" y="356" width="440" height="26" rx="13"/>
    <rect x="232" y="416" width="380" height="26" rx="13"/>
  </g>

  <!-- Cyan scan beam: halo, mid glow, bright core, hot centre -->
  <rect x="196" y="466" width="632" height="72" rx="36" fill="#22D3EE" opacity="0.15"/>
  <rect x="210" y="482" width="604" height="40" rx="20" fill="#22D3EE" opacity="0.30"/>
  <rect x="224" y="494" width="576" height="16" rx="8" fill="#22D3EE"/>
  <rect x="224" y="499" width="576" height="6" rx="3" fill="#CFFAFE" opacity="0.95"/>

  <!-- Recognized text rows (bright) -->
  <g fill="#E2E8F0">
    <rect x="232" y="566" width="440" height="26" rx="13"/>
    <rect x="232" y="626" width="360" height="26" rx="13"/>
  </g>

  <!-- Prompt: ">" chevron drawn as two strokes, plus the cursor block -->
  <path d="M 232 688 L 268 712 L 232 736" fill="none" stroke="#22D3EE"
        stroke-width="18" stroke-linecap="round" stroke-linejoin="round"/>
  <rect x="298" y="700" width="72" height="22" rx="8" fill="#22D3EE"/>
</svg>
